<svg width="800" height="600" xmlns="http://www.w3.org/2000/svg">
  <!-- Sky gradient -->
  <defs>
    <linearGradient id="skyGradient" x1="0%" y1="0%" x2="0%" y2="100%">
      <stop offset="0%" style="stop-color:#87CEEB;stop-opacity:1" />
      <stop offset="100%" style="stop-color:#98FB98;stop-opacity:1" />
    </linearGradient>
  </defs>
  
  <!-- Sky -->
  <rect width="800" height="400" fill="url(#skyGradient)"/>
  
  <!-- Ground -->
  <rect x="0" y="400" width="800" height="200" fill="#228B22"/>
  
  <!-- Grass texture -->
  <g opacity="0.6">
    <rect x="0" y="400" width="20" height="8" fill="#32CD32"/>
    <rect x="40" y="405" width="15" height="6" fill="#32CD32"/>
    <rect x="80" y="402" width="18" height="7" fill="#32CD32"/>
    <rect x="120" y="408" width="12" height="5" fill="#32CD32"/>
    <rect x="160" y="401" width="16" height="9" fill="#32CD32"/>
    <rect x="200" y="406" width="14" height="6" fill="#32CD32"/>
    <rect x="240" y="403" width="17" height="8" fill="#32CD32"/>
    <rect x="280" y="407" width="13" height="5" fill="#32CD32"/>
    <rect x="320" y="400" width="19" height="10" fill="#32CD32"/>
    <rect x="360" y="405" width="15" height="7" fill="#32CD32"/>
    <rect x="400" y="402" width="16" height="8" fill="#32CD32"/>
    <rect x="440" y="408" width="11" height="4" fill="#32CD32"/>
    <rect x="480" y="404" width="18" height="9" fill="#32CD32"/>
    <rect x="520" y="401" width="14" height="6" fill="#32CD32"/>
    <rect x="560" y="407" width="17" height="7" fill="#32CD32"/>
    <rect x="600" y="403" width="13" height="8" fill="#32CD32"/>
    <rect x="640" y="405" width="16" height="6" fill="#32CD32"/>
    <rect x="680" y="400" width="19" height="10" fill="#32CD32"/>
    <rect x="720" y="406" width="15" height="7" fill="#32CD32"/>
    <rect x="760" y="402" width="18" height="8" fill="#32CD32"/>
  </g>
  
  <!-- Clouds -->
  <ellipse cx="150" cy="100" rx="40" ry="20" fill="white" opacity="0.8"/>
  <ellipse cx="170" cy="90" rx="30" ry="15" fill="white" opacity="0.8"/>
  <ellipse cx="140" cy="85" rx="25" ry="12" fill="white" opacity="0.8"/>
  
  <ellipse cx="600" cy="120" rx="35" ry="18" fill="white" opacity="0.8"/>
  <ellipse cx="620" cy="110" rx="28" ry="14" fill="white" opacity="0.8"/>
  <ellipse cx="590" cy="105" rx="22" ry="11" fill="white" opacity="0.8"/>
</svg> 